<svg xmlns="http://www.w3.org/2000/svg" viewBox="0 0 157.57 429.47"><defs><style>.cls-1{fill:#3f3630;stroke:#3f3630;}.cls-1,.cls-2,.cls-4{stroke-miterlimit:10;}.cls-2{fill:#3d7457;stroke:#3d7457;}.cls-3,.cls-4{fill:#1d3829;}.cls-4{stroke:#1d3829;}</style></defs><g id="Calque_2" data-name="Calque 2"><g id="Calque_1-2" data-name="Calque 1"><path class="cls-1" d="M66,405.74h31s.34-11.91-7.15-10.21-8.51,6.3-12.59,5S66,405.74,66,405.74Z"/><path class="cls-2" d="M65.94.69,61.43,39a76.88,76.88,0,0,0-.62,7.74C60.43,59,57,85.8,61,100.63c9.44,35.24,42.88,92.46,39.92,114.06.28,20.5-36,86-36.75,122.5-.67,32.5,10.25,86.5,10.25,86.5H53.94s-13-46-9.49-76.5c2-17.84,19-65.38,29.14-91.66,1-2.47,1.84-4.74,2.65-6.79,2.38-6,4.3-9.92,4.7-11.05,19-54-18.65-96.38-29-130,0,0-4.64-11.89-1-51,1.82-19.55,4.13-26,6-41,1-8,2-13,2-13Z"/><path class="cls-2" d="M58.94,233.69l15.47,17.73,3.52-8.87S55.09,224.69,49,210.19s-7.08-15.5-7.08-15.5l-4,10Z"/><path class="cls-2" d="M93.45,180s25.52-19.21,32.49-37.33c5-13,13-63,13-63l-9,7-3,22s-5,32-14,44c-7.22,9.63-22.44,19.78-22.44,19.78Z"/><path class="cls-3" d="M62.91,426.79H75.44s-15.18-76.36-10.06-98.93,17.39-55.2,17-55.14S64.34,307,58.64,339.14s1.32,52.15,3.08,65.15A129.58,129.58,0,0,1,62.91,426.79Z"/><path class="cls-3" d="M74.31,252.08c.45.3,2.63-4.63,2.63-4.63l-18.09-13.1S73.87,251.78,74.31,252.08Z"/><path class="cls-3" d="M93.52,180.68l-2-6.47,24-14.29S110,168.17,93.52,180.68Z"/><path class="cls-2" d="M130.87,127A18.67,18.67,0,0,1,139,113.62c4.52-3.05,13-2.87,18.07-3.77a2.62,2.62,0,0,1,0,.28c0,.11,0,.22,0,.33,0,.58,0,1.14,0,1.68,0,.36,0,.72-.08,1.07s-.09.76-.15,1.13c-.72,4.29-2.83,7.3-4.75,8.49-6.45,4-13.07,3-18.84,3.74"/><path class="cls-4" d="M157.06,110.82c0,.58,0,1.14,0,1.68,0,.36,0,.72-.08,1.07s-.09.76-.15,1.13c-.67,4.27-2.56,7.39-4.5,8.45-7.79,4.26-20.35,3.45-20.35,3.45L157,110.49h0C157.05,110.59,157.06,110.71,157.06,110.82Z"/><path class="cls-1" d="M97.52,416h7.12s.48-2.6-1.78-2.34-2.19-.28-3.77.45A2.66,2.66,0,0,0,97.52,416Z"/><path class="cls-1" d="M1.53,429H83.4s-7.81-22.71-18.73-15.44-12.28-5.9-19.55-4.54-17.71-5.9-27.25,4.54S1.53,429,1.53,429Z"/></g></g></svg>